<svg xmlns="http://www.w3.org/2000/svg" xmlns:xlink="http://www.w3.org/1999/xlink" width="500" zoomAndPan="magnify" viewBox="0 0 375 374.999991" height="500" preserveAspectRatio="xMidYMid meet" version="1.2"><defs><clipPath id="ba179b32fa"><path d="M 72 44 L 335.648438 44 L 335.648438 177 L 72 177 Z M 72 44 "/></clipPath></defs><g id="1d9153943b"><g clip-rule="nonzero" clip-path="url(#ba179b32fa)"><path style=" stroke:none;fill-rule:nonzero;fill:#7615a4;fill-opacity:1;" d="M 413.527344 57.152344 C 416.03125 56.867188 416.03125 56.867188 419.207031 56.90625 L 420.894531 56.917969 C 422.675781 56.933594 424.453125 56.964844 426.234375 56.996094 C 427.441406 57.007812 428.648438 57.019531 429.851562 57.03125 C 432.8125 57.058594 435.769531 57.101562 438.730469 57.152344 C 441.707031 62.753906 443.886719 68.503906 446.015625 74.46875 L 447.140625 77.589844 C 448.140625 80.367188 449.140625 83.148438 450.132812 85.929688 C 450.964844 88.246094 451.792969 90.5625 452.625 92.875 C 457.910156 107.566406 463.101562 122.289062 468.203125 137.042969 C 472.480469 149.394531 477 161.65625 481.761719 173.832031 C 482.40625 175.589844 482.40625 175.589844 482.40625 176.429688 C 479.105469 176.535156 475.800781 176.613281 472.496094 176.664062 C 470.820312 176.691406 469.144531 176.746094 467.46875 176.800781 L 464.277344 176.84375 C 463.308594 176.863281 462.335938 176.886719 461.332031 176.910156 L 458.886719 176.429688 C 456.679688 173.71875 455.640625 170.558594 454.46875 167.285156 L 453.460938 164.480469 L 452.429688 161.574219 C 452.082031 160.605469 451.734375 159.636719 451.371094 158.640625 C 448.808594 151.460938 448.808594 151.460938 448.808594 149.550781 L 405.128906 149.550781 C 403.558594 153.214844 402.144531 156.632812 400.921875 160.386719 L 400.039062 163.074219 L 399.144531 165.828125 C 398.550781 167.652344 397.953125 169.480469 397.351562 171.304688 L 396.5625 173.738281 C 395.890625 175.589844 395.890625 175.589844 395.050781 176.429688 C 393.308594 176.503906 391.566406 176.519531 389.824219 176.511719 L 386.617188 176.503906 L 383.238281 176.484375 C 382.109375 176.480469 380.980469 176.476562 379.847656 176.472656 C 377.078125 176.460938 374.304688 176.449219 371.53125 176.429688 C 372.003906 172.246094 372.921875 168.65625 374.429688 164.726562 L 375.0625 163.054688 C 375.511719 161.859375 375.96875 160.664062 376.425781 159.46875 C 377.6875 156.175781 378.921875 152.878906 380.15625 149.578125 L 380.941406 147.484375 C 383.75 139.964844 386.421875 132.402344 389.066406 124.824219 L 389.789062 122.75 C 392.707031 114.375 395.59375 105.988281 398.445312 97.589844 L 399.300781 95.070312 C 400.671875 91.042969 402.039062 87.015625 403.398438 82.988281 C 410.699219 61.398438 410.699219 61.398438 413.527344 57.152344 M 426.128906 84.875 C 424.75 88.746094 423.378906 92.621094 422.019531 96.5 C 421.332031 98.464844 420.640625 100.425781 419.941406 102.386719 C 418.886719 105.371094 417.835938 108.359375 416.792969 111.347656 C 416.367188 112.558594 415.941406 113.769531 415.511719 114.976562 C 414.898438 116.703125 414.292969 118.433594 413.691406 120.164062 L 412.617188 123.21875 C 411.628906 126.355469 411.628906 126.355469 411.847656 131.070312 L 442.089844 131.070312 C 441.46875 126.332031 441.46875 126.332031 440.28125 121.910156 L 439.703125 120.175781 L 439.078125 118.359375 L 438.429688 116.421875 C 437.746094 114.390625 437.058594 112.363281 436.367188 110.335938 L 435.003906 106.300781 C 434.132812 103.707031 433.257812 101.117188 432.378906 98.523438 C 430.835938 93.980469 429.320312 89.425781 427.808594 84.875 Z M 158.191406 44.378906 C 160.695312 44.554688 160.695312 44.554688 163.582031 45.5 C 166.214844 47.425781 168.351562 49.253906 169.933594 52.113281 C 171.539062 57.53125 171.863281 62.984375 171.847656 68.59375 L 171.859375 70.898438 C 171.871094 73.378906 171.871094 75.859375 171.867188 78.339844 L 171.878906 83.5625 C 171.882812 87.195312 171.882812 90.832031 171.878906 94.464844 C 171.875 99.113281 171.886719 103.757812 171.910156 108.402344 C 171.921875 111.992188 171.921875 115.582031 171.917969 119.171875 C 171.917969 120.882812 171.925781 122.59375 171.933594 124.308594 C 171.941406 126.703125 171.9375 129.101562 171.925781 131.5 L 171.945312 133.613281 C 171.90625 138.429688 171.027344 142.605469 169.09375 147.03125 C 166.960938 149.777344 164.210938 151.535156 161.167969 153.175781 C 156.65625 154.382812 153.015625 154.984375 148.464844 153.855469 C 143.707031 152.234375 139.585938 149.648438 135.339844 147.003906 C 130.6875 144.113281 125.953125 141.367188 121.21875 138.605469 C 112.613281 133.589844 104.035156 128.527344 95.492188 123.40625 L 92.976562 121.902344 C 90.625 120.488281 88.277344 119.066406 85.9375 117.632812 L 83.367188 116.070312 C 82.539062 115.558594 81.710938 115.042969 80.859375 114.515625 L 78.597656 113.121094 C 76.753906 111.792969 75.679688 110.734375 74.492188 108.8125 C 73.257812 105.667969 72.554688 103.378906 72.496094 99.992188 C 72.921875 97.214844 73.660156 94.898438 75.015625 92.433594 C 77.726562 89.414062 80.382812 87.003906 84.257812 85.714844 C 87.988281 85.152344 91.34375 85.246094 94.917969 86.515625 C 101.476562 89.6875 107.621094 93.683594 113.8125 97.511719 C 117.957031 100.070312 122.148438 102.539062 126.359375 104.980469 L 128.316406 106.121094 L 130.199219 107.207031 L 131.828125 108.148438 C 134.691406 109.710938 137.613281 111.148438 140.535156 112.59375 L 140.519531 110.496094 C 140.46875 103.957031 140.429688 97.421875 140.40625 90.882812 C 140.394531 87.523438 140.375 84.164062 140.347656 80.804688 C 140.320312 77.554688 140.300781 74.308594 140.296875 71.0625 C 140.292969 69.828125 140.28125 68.59375 140.269531 67.359375 C 140.253906 65.621094 140.246094 63.882812 140.25 62.148438 L 140.230469 59.15625 C 140.597656 55.730469 141.523438 53.511719 143.054688 50.433594 C 144.527344 48.789062 144.527344 48.789062 146.046875 47.597656 L 147.574219 46.371094 C 150.9375 43.957031 154.160156 44.328125 158.191406 44.378906 M 222.855469 44.554688 C 226.125 45.65625 228.332031 47.480469 230.675781 50.015625 C 232.574219 52.824219 233.707031 54.605469 233.976562 58.046875 L 233.964844 61.097656 L 233.964844 62.789062 C 233.960938 64.625 233.953125 66.460938 233.9375 68.296875 L 233.929688 72.125 C 233.921875 75.476562 233.90625 78.828125 233.886719 82.183594 C 233.871094 85.605469 233.863281 89.027344 233.855469 92.453125 C 233.839844 99.167969 233.808594 105.878906 233.773438 112.59375 C 238.058594 111.078125 241.820312 109.457031 245.703125 107.058594 L 247.121094 106.191406 C 248.113281 105.582031 249.105469 104.96875 250.09375 104.355469 C 251.648438 103.390625 253.203125 102.433594 254.761719 101.484375 C 259.539062 98.570312 264.289062 95.621094 269.023438 92.640625 L 271.292969 91.230469 C 272.65625 90.382812 274.015625 89.519531 275.367188 88.648438 C 279.121094 86.328125 282.226562 85.195312 286.636719 84.828125 C 289.140625 84.894531 291.246094 85.429688 293.535156 86.433594 C 296.398438 88.195312 298.34375 90.445312 300.132812 93.273438 C 301.558594 96.628906 301.941406 99.394531 301.707031 102.984375 C 301.332031 105.425781 300.816406 107.054688 299.765625 109.335938 C 294.492188 115.253906 287.054688 118.992188 280.183594 122.777344 C 273.640625 126.425781 267.144531 130.132812 260.707031 133.960938 L 253.84375 138.03125 C 249.417969 140.65625 244.984375 143.269531 240.546875 145.875 L 238 147.382812 C 226.535156 154.105469 226.535156 154.105469 220.910156 154.171875 C 216.558594 154.039062 213.28125 152.929688 209.496094 150.804688 C 207.027344 149.050781 205.722656 147.207031 204.375 144.511719 L 203.46875 142.746094 C 202.367188 139.289062 202.445312 136.023438 202.449219 132.410156 L 202.433594 130.019531 C 202.417969 127.410156 202.414062 124.800781 202.410156 122.191406 L 202.394531 116.730469 C 202.386719 112.917969 202.382812 109.101562 202.382812 105.285156 C 202.382812 100.414062 202.359375 95.539062 202.332031 90.664062 C 202.316406 86.90625 202.308594 83.144531 202.308594 79.386719 C 202.308594 77.589844 202.300781 75.792969 202.289062 74 C 202.269531 71.476562 202.277344 68.957031 202.285156 66.4375 L 202.257812 64.214844 C 202.3125 58.871094 203.492188 54.316406 206.054688 49.59375 C 207.640625 47.78125 209.050781 46.742188 211.09375 45.394531 C 214.988281 44.09375 218.785156 44.144531 222.855469 44.554688 "/></g><path style=" stroke:none;fill-rule:nonzero;fill:#7615a4;fill-opacity:1;" d="M 161.167969 225.253906 C 164.527344 227.085938 167.316406 229.074219 169.933594 231.871094 C 172.730469 236.949219 172.582031 242.832031 172.589844 248.488281 L 172.601562 250.683594 C 172.613281 253.070312 172.621094 255.457031 172.625 257.84375 L 172.640625 262.847656 C 172.648438 266.339844 172.652344 269.832031 172.65625 273.328125 C 172.660156 277.789062 172.679688 282.246094 172.707031 286.707031 C 172.722656 290.152344 172.726562 293.597656 172.726562 297.042969 C 172.730469 298.6875 172.734375 300.328125 172.746094 301.972656 C 172.855469 319.015625 172.855469 319.015625 169.933594 325.109375 C 168.148438 328.167969 166.101562 329.9375 163.003906 331.722656 C 159.238281 332.851562 156.183594 333.355469 152.296875 332.667969 C 149.488281 331.613281 147.113281 330.292969 144.734375 328.46875 C 142.496094 325.726562 141.207031 323.507812 140.535156 320.066406 C 140.460938 318.679688 140.421875 317.292969 140.421875 315.902344 L 140.417969 313.324219 L 140.429688 310.511719 L 140.4375 307.582031 C 140.5 293.539062 140.953125 279.503906 141.375 265.46875 C 131.488281 270.820312 121.847656 276.5 112.304688 282.4375 C 95.585938 292.835938 95.585938 292.835938 91.1875 294.082031 C 87.210938 294.003906 83.738281 293.546875 80.28125 291.476562 C 78.210938 289.886719 76.65625 288.09375 75.121094 285.996094 C 73.695312 281.640625 73.644531 277.5625 74.175781 273.027344 C 74.886719 270.605469 75.894531 269.046875 77.535156 267.148438 C 82.320312 262.945312 87.890625 259.898438 93.421875 256.800781 C 96.027344 255.34375 98.625 253.871094 101.21875 252.398438 L 102.851562 251.472656 C 108.746094 248.132812 114.589844 244.703125 120.429688 241.269531 L 123.5 239.464844 C 127.234375 237.273438 130.96875 235.078125 134.699219 232.878906 C 136.941406 231.558594 139.183594 230.242188 141.429688 228.929688 L 143.367188 227.78125 L 145.132812 226.75 L 146.636719 225.867188 C 151.304688 223.574219 156.3125 223.722656 161.167969 225.253906 "/><path style=" stroke:none;fill-rule:nonzero;fill:#7615a4;fill-opacity:1;" d="M 222.855469 223.46875 C 229.285156 225.410156 234.882812 228.835938 240.546875 232.371094 C 243.113281 233.972656 245.691406 235.550781 248.269531 237.132812 L 249.882812 238.125 C 255.71875 241.707031 261.621094 245.164062 267.53125 248.617188 L 270.617188 250.421875 C 274.964844 252.96875 279.316406 255.5 283.691406 258.003906 C 284.351562 258.386719 285.015625 258.769531 285.695312 259.160156 C 286.863281 259.832031 288.03125 260.5 289.207031 261.160156 C 293.304688 263.527344 296.304688 266.21875 299.109375 270.015625 C 300.742188 273.488281 300.523438 276.671875 300.421875 280.449219 C 300.167969 282.792969 299.878906 284.394531 298.820312 286.46875 C 296.402344 289.441406 294.480469 291.71875 290.890625 293.1875 C 287.363281 293.855469 284.320312 293.960938 280.8125 293.1875 C 274.109375 290.085938 267.875 285.957031 261.589844 282.09375 C 254.421875 277.695312 247.25 273.3125 239.917969 269.195312 L 238.269531 268.273438 C 236.144531 266.894531 236.144531 266.894531 233.773438 266.308594 L 233.796875 268.335938 C 233.863281 274.664062 233.914062 280.992188 233.945312 287.316406 C 233.964844 290.570312 233.988281 293.820312 234.027344 297.074219 C 234.0625 300.214844 234.085938 303.359375 234.09375 306.5 C 234.097656 307.695312 234.109375 308.890625 234.128906 310.085938 C 234.28125 320.597656 234.28125 320.597656 232.203125 324.929688 C 230.066406 328.152344 227.960938 329.964844 224.65625 331.894531 C 221.363281 333.304688 217.96875 333.011719 214.453125 332.667969 C 211.089844 331.566406 209.0625 329.960938 206.683594 327.417969 C 204.320312 324.746094 203.40625 321.828125 202.695312 318.386719 C 202.472656 315.972656 202.472656 313.582031 202.488281 311.160156 L 202.484375 309.042969 C 202.480469 306.746094 202.492188 304.449219 202.5 302.152344 C 202.5 300.542969 202.5 298.9375 202.5 297.328125 C 202.503906 293.960938 202.507812 290.59375 202.519531 287.230469 C 202.535156 282.9375 202.539062 278.640625 202.539062 274.347656 C 202.539062 271.027344 202.542969 267.707031 202.546875 264.386719 C 202.550781 262.804688 202.550781 261.222656 202.554688 259.640625 C 202.574219 236.40625 202.574219 236.40625 206.054688 230.191406 C 208.207031 227.558594 210.050781 226.101562 213.035156 224.46875 C 216.46875 223.363281 219.3125 222.902344 222.855469 223.46875 "/><path style=" stroke:none;fill-rule:nonzero;fill:#7615a4;fill-opacity:1;" d="M 65.777344 139.472656 C 72.1875 141.984375 78.085938 145.929688 83.941406 149.5 C 91.148438 153.867188 98.394531 158.171875 105.675781 162.414062 L 108.195312 163.886719 C 111.976562 166.09375 115.765625 168.277344 119.59375 170.398438 C 130.722656 176.609375 130.722656 176.609375 133.972656 181.730469 C 135.503906 184.914062 135.847656 187.679688 135.761719 191.160156 C 135.375 194.183594 134.503906 196.386719 132.886719 198.964844 C 129.910156 202.378906 126.039062 204.402344 122.117188 206.554688 C 119.546875 207.96875 117.003906 209.429688 114.460938 210.890625 C 112.996094 211.726562 111.527344 212.5625 110.0625 213.394531 C 104.183594 216.734375 98.367188 220.175781 92.5625 223.636719 C 67.246094 238.726562 67.246094 238.726562 61.675781 238.832031 C 57.886719 238.316406 54.730469 237.296875 51.496094 235.230469 C 49.089844 232.960938 47.632812 230.761719 46.457031 227.671875 C 45.777344 223.574219 45.734375 219.722656 47.078125 215.757812 C 48.785156 212.484375 51.105469 210.519531 54.015625 208.351562 C 55.445312 207.496094 56.894531 206.679688 58.367188 205.898438 L 60.875 204.554688 L 63.519531 203.152344 L 68.945312 200.246094 L 71.628906 198.808594 C 75.15625 196.894531 78.667969 194.949219 82.15625 192.96875 L 83.859375 192.003906 C 85.113281 191.292969 86.363281 190.582031 87.617188 189.871094 C 80.503906 184.65625 73 180.339844 65.320312 176.027344 C 51.289062 168.054688 51.289062 168.054688 47.296875 162.152344 C 45.992188 158.234375 45.964844 154.476562 46.457031 150.390625 C 47.464844 147.769531 48.773438 145.75 50.65625 143.671875 C 55.550781 139.855469 59.699219 138.71875 65.777344 139.472656 "/><path style=" stroke:none;fill-rule:nonzero;fill:#7615a4;fill-opacity:1;" d="M 317.769531 141.152344 C 321.25 142.796875 323.34375 144.957031 325.699219 147.976562 C 327.371094 151.296875 327.488281 154.523438 327.324219 158.195312 C 326.941406 160.988281 326.355469 163.183594 324.894531 165.601562 C 320.699219 170.976562 312.964844 174.027344 307.0625 177.167969 C 295.824219 182.59375 295.824219 182.59375 285.851562 189.871094 L 292.042969 193.371094 L 297.328125 196.359375 C 301.308594 198.613281 305.292969 200.863281 309.300781 203.082031 L 311.132812 204.097656 C 312.234375 204.707031 313.335938 205.316406 314.441406 205.921875 C 318.542969 208.199219 321.875 210.464844 324.703125 214.230469 C 326.640625 217.550781 326.953125 219.429688 327.273438 223.261719 C 327.21875 226.617188 326.339844 229.089844 324.726562 232.015625 C 322.691406 234.917969 320.113281 237 316.929688 238.589844 C 312.757812 239.269531 309.042969 239.082031 305.058594 237.632812 C 301.933594 236.109375 298.929688 234.464844 295.933594 232.710938 L 293.996094 231.578125 C 289.699219 229.046875 285.4375 226.460938 281.175781 223.867188 C 278.21875 222.078125 275.238281 220.332031 272.253906 218.589844 L 268.820312 216.558594 C 266.640625 215.273438 264.453125 214 262.257812 212.734375 C 259.40625 211.09375 256.5625 209.433594 253.722656 207.773438 L 250.960938 206.199219 C 245.953125 203.25 242.542969 200.84375 239.652344 195.75 C 238.972656 193.652344 238.972656 193.652344 238.8125 191.550781 L 238.550781 188.769531 C 238.828125 185.503906 239.597656 183.433594 241.027344 180.542969 C 244.394531 175.863281 250.003906 173.4375 254.929688 170.710938 C 257.589844 169.222656 260.25 167.734375 262.90625 166.242188 C 267.53125 163.636719 272.125 160.976562 276.71875 158.320312 L 282.195312 155.15625 C 285.6875 153.140625 289.171875 151.117188 292.65625 149.09375 L 297.402344 146.351562 L 299.566406 145.082031 C 305.703125 141.546875 310.683594 139.261719 317.769531 141.152344 "/></g></svg>