<svg xmlns="http://www.w3.org/2000/svg" xmlns:xlink="http://www.w3.org/1999/xlink" width="500" zoomAndPan="magnify" viewBox="0 0 375 374.999991" height="500" preserveAspectRatio="xMidYMid meet" version="1.2"><g id="ab2de57bfb"><path style=" stroke:none;fill-rule:nonzero;fill:#7615a4;fill-opacity:1;" d="M 173.246094 137.554688 C 174.21875 137.441406 174.21875 137.441406 175.449219 137.457031 L 176.105469 137.460938 C 176.796875 137.46875 177.488281 137.480469 178.179688 137.492188 C 178.648438 137.5 179.117188 137.503906 179.585938 137.507812 C 180.738281 137.519531 181.886719 137.535156 183.035156 137.554688 C 184.191406 139.730469 185.039062 141.960938 185.867188 144.28125 L 186.304688 145.492188 C 186.691406 146.574219 187.078125 147.652344 187.464844 148.734375 C 187.789062 149.632812 188.113281 150.53125 188.433594 151.433594 C 190.488281 157.140625 192.503906 162.859375 194.484375 168.589844 C 196.148438 173.390625 197.902344 178.152344 199.753906 182.882812 C 200.003906 183.566406 200.003906 183.566406 200.003906 183.890625 C 198.722656 183.933594 197.4375 183.960938 196.152344 183.980469 C 195.503906 183.996094 194.851562 184.015625 194.199219 184.035156 L 192.960938 184.050781 C 192.582031 184.058594 192.207031 184.070312 191.816406 184.078125 L 190.867188 183.890625 C 190.007812 182.839844 189.605469 181.613281 189.148438 180.339844 L 188.757812 179.25 L 188.359375 178.121094 C 188.222656 177.742188 188.085938 177.367188 187.945312 176.980469 C 186.953125 174.191406 186.953125 174.191406 186.953125 173.449219 L 169.980469 173.449219 C 169.371094 174.875 168.824219 176.199219 168.347656 177.660156 L 168.003906 178.703125 L 167.65625 179.773438 C 167.425781 180.480469 167.195312 181.191406 166.960938 181.902344 L 166.652344 182.847656 C 166.394531 183.566406 166.394531 183.566406 166.066406 183.890625 C 165.390625 183.921875 164.710938 183.925781 164.035156 183.925781 L 162.789062 183.921875 L 161.476562 183.914062 C 161.039062 183.910156 160.601562 183.910156 160.160156 183.910156 C 159.082031 183.90625 158.007812 183.898438 156.929688 183.890625 C 157.113281 182.265625 157.46875 180.871094 158.054688 179.34375 L 158.300781 178.695312 C 158.476562 178.230469 158.652344 177.765625 158.832031 177.300781 C 159.320312 176.023438 159.800781 174.742188 160.28125 173.460938 L 160.585938 172.644531 C 161.675781 169.726562 162.714844 166.789062 163.742188 163.84375 L 164.023438 163.039062 C 165.15625 159.785156 166.277344 156.527344 167.386719 153.265625 L 167.71875 152.285156 C 168.25 150.71875 168.78125 149.15625 169.308594 147.589844 C 172.144531 139.203125 172.144531 139.203125 173.246094 137.554688 M 178.140625 148.324219 C 177.605469 149.828125 177.074219 151.332031 176.542969 152.839844 C 176.277344 153.601562 176.007812 154.363281 175.738281 155.125 C 175.328125 156.285156 174.917969 157.445312 174.511719 158.609375 C 174.347656 159.078125 174.183594 159.546875 174.015625 160.019531 C 173.777344 160.6875 173.542969 161.359375 173.308594 162.03125 L 172.890625 163.21875 C 172.507812 164.4375 172.507812 164.4375 172.59375 166.269531 L 184.339844 166.269531 C 184.097656 164.429688 184.097656 164.429688 183.636719 162.710938 L 183.414062 162.035156 L 183.171875 161.332031 L 182.917969 160.578125 C 182.652344 159.789062 182.386719 159.003906 182.117188 158.214844 L 181.589844 156.648438 C 181.25 155.640625 180.910156 154.632812 180.566406 153.625 C 179.96875 151.859375 179.378906 150.09375 178.792969 148.324219 Z M 74.050781 132.589844 C 75.023438 132.660156 75.023438 132.660156 76.144531 133.027344 C 77.167969 133.773438 77.996094 134.484375 78.609375 135.597656 C 79.234375 137.699219 79.359375 139.820312 79.355469 142 L 79.359375 142.894531 C 79.363281 143.855469 79.363281 144.820312 79.363281 145.785156 L 79.367188 147.8125 C 79.367188 149.226562 79.367188 150.636719 79.367188 152.050781 C 79.363281 153.855469 79.371094 155.660156 79.378906 157.464844 C 79.382812 158.859375 79.382812 160.253906 79.382812 161.648438 C 79.382812 162.3125 79.382812 162.976562 79.386719 163.644531 C 79.390625 164.574219 79.390625 165.503906 79.386719 166.4375 L 79.394531 167.257812 C 79.375 169.128906 79.035156 170.75 78.285156 172.472656 C 77.457031 173.539062 76.386719 174.222656 75.207031 174.855469 C 73.453125 175.328125 72.039062 175.558594 70.269531 175.121094 C 68.421875 174.492188 66.820312 173.488281 65.171875 172.460938 C 63.363281 171.335938 61.523438 170.269531 59.683594 169.199219 C 56.34375 167.25 53.011719 165.28125 49.691406 163.292969 L 48.714844 162.707031 C 47.800781 162.160156 46.886719 161.605469 45.980469 161.050781 L 44.980469 160.441406 C 44.660156 160.242188 44.335938 160.042969 44.003906 159.839844 L 43.128906 159.296875 C 42.410156 158.78125 41.992188 158.371094 41.53125 157.625 C 41.054688 156.402344 40.78125 155.511719 40.757812 154.195312 C 40.921875 153.117188 41.207031 152.21875 41.738281 151.261719 C 42.789062 150.085938 43.820312 149.152344 45.324219 148.648438 C 46.777344 148.433594 48.078125 148.46875 49.46875 148.960938 C 52.015625 150.191406 54.402344 151.746094 56.808594 153.234375 C 58.417969 154.226562 60.046875 155.1875 61.683594 156.132812 L 62.445312 156.578125 L 63.175781 157 L 63.808594 157.367188 C 64.917969 157.972656 66.054688 158.53125 67.191406 159.089844 L 67.183594 158.277344 C 67.164062 155.738281 67.148438 153.199219 67.140625 150.65625 C 67.132812 149.351562 67.125 148.046875 67.117188 146.742188 C 67.105469 145.480469 67.097656 144.21875 67.097656 142.957031 C 67.09375 142.476562 67.089844 142 67.085938 141.519531 C 67.078125 140.84375 67.078125 140.167969 67.078125 139.496094 L 67.070312 138.332031 C 67.214844 137 67.574219 136.140625 68.167969 134.945312 C 68.742188 134.304688 68.742188 134.304688 69.332031 133.84375 L 69.925781 133.367188 C 71.230469 132.425781 72.484375 132.570312 74.050781 132.589844 M 99.167969 132.660156 C 100.441406 133.085938 101.296875 133.796875 102.207031 134.78125 C 102.945312 135.871094 103.386719 136.5625 103.492188 137.902344 L 103.484375 139.085938 L 103.484375 139.742188 C 103.484375 140.457031 103.480469 141.167969 103.476562 141.882812 L 103.472656 143.371094 C 103.46875 144.671875 103.464844 145.976562 103.457031 147.277344 C 103.449219 148.609375 103.445312 149.9375 103.445312 151.265625 C 103.4375 153.875 103.425781 156.484375 103.410156 159.089844 C 105.078125 158.503906 106.539062 157.871094 108.046875 156.941406 L 108.597656 156.605469 C 108.984375 156.367188 109.367188 156.128906 109.753906 155.890625 C 110.355469 155.515625 110.960938 155.144531 111.566406 154.777344 C 113.421875 153.644531 115.265625 152.5 117.105469 151.339844 L 117.988281 150.792969 C 118.519531 150.460938 119.046875 150.128906 119.570312 149.789062 C 121.027344 148.886719 122.234375 148.449219 123.949219 148.304688 C 124.921875 148.332031 125.738281 148.539062 126.628906 148.929688 C 127.742188 149.613281 128.496094 150.488281 129.191406 151.585938 C 129.746094 152.890625 129.894531 153.964844 129.804688 155.359375 C 129.65625 156.308594 129.457031 156.941406 129.050781 157.828125 C 127 160.125 124.109375 161.578125 121.441406 163.046875 C 118.898438 164.464844 116.375 165.90625 113.875 167.394531 L 111.210938 168.972656 C 109.488281 169.992188 107.765625 171.011719 106.042969 172.023438 L 105.054688 172.609375 C 100.601562 175.21875 100.601562 175.21875 98.414062 175.246094 C 96.722656 175.195312 95.449219 174.761719 93.980469 173.9375 C 93.023438 173.253906 92.515625 172.539062 91.992188 171.492188 L 91.640625 170.808594 C 91.210938 169.464844 91.242188 168.195312 91.242188 166.792969 L 91.238281 165.859375 C 91.230469 164.847656 91.230469 163.832031 91.226562 162.820312 L 91.222656 160.699219 C 91.21875 159.21875 91.214844 157.734375 91.21875 156.253906 C 91.21875 154.359375 91.207031 152.464844 91.195312 150.574219 C 91.191406 149.113281 91.1875 147.652344 91.1875 146.191406 C 91.1875 145.492188 91.183594 144.796875 91.179688 144.097656 C 91.171875 143.117188 91.175781 142.140625 91.179688 141.160156 L 91.167969 140.296875 C 91.1875 138.222656 91.648438 136.453125 92.644531 134.617188 C 93.257812 133.914062 93.808594 133.507812 94.601562 132.984375 C 96.113281 132.480469 97.589844 132.5 99.167969 132.660156 "/><path style=" stroke:none;fill-rule:nonzero;fill:#7615a4;fill-opacity:1;" d="M 75.207031 202.859375 C 76.511719 203.570312 77.59375 204.34375 78.609375 205.429688 C 79.695312 207.402344 79.640625 209.6875 79.644531 211.886719 L 79.648438 212.738281 C 79.652344 213.667969 79.65625 214.59375 79.65625 215.519531 L 79.660156 217.464844 C 79.664062 218.820312 79.667969 220.179688 79.667969 221.535156 C 79.671875 223.269531 79.679688 225 79.6875 226.734375 C 79.695312 228.074219 79.695312 229.410156 79.695312 230.75 C 79.695312 231.386719 79.699219 232.027344 79.703125 232.664062 C 79.746094 239.285156 79.746094 239.285156 78.609375 241.652344 C 77.917969 242.839844 77.121094 243.527344 75.917969 244.222656 C 74.457031 244.660156 73.269531 244.855469 71.757812 244.589844 C 70.667969 244.179688 69.746094 243.664062 68.820312 242.957031 C 67.953125 241.890625 67.449219 241.03125 67.191406 239.695312 C 67.160156 239.15625 67.144531 238.617188 67.144531 238.074219 L 67.144531 237.074219 L 67.148438 235.980469 L 67.152344 234.84375 C 67.175781 229.386719 67.351562 223.933594 67.515625 218.484375 C 63.675781 220.5625 59.929688 222.765625 56.222656 225.074219 C 49.726562 229.113281 49.726562 229.113281 48.019531 229.597656 C 46.472656 229.570312 45.125 229.390625 43.78125 228.585938 C 42.976562 227.96875 42.375 227.273438 41.777344 226.457031 C 41.222656 224.765625 41.203125 223.179688 41.410156 221.417969 C 41.6875 220.476562 42.078125 219.871094 42.714844 219.136719 C 44.574219 217.503906 46.738281 216.316406 48.886719 215.117188 C 49.898438 214.550781 50.90625 213.976562 51.917969 213.402344 L 52.550781 213.046875 C 54.839844 211.746094 57.109375 210.414062 59.378906 209.082031 L 60.570312 208.378906 C 62.023438 207.527344 63.472656 206.675781 64.921875 205.820312 C 65.792969 205.308594 66.664062 204.796875 67.535156 204.289062 L 68.289062 203.84375 L 68.976562 203.441406 L 69.558594 203.097656 C 71.375 202.207031 73.320312 202.265625 75.203125 202.859375 "/><path style=" stroke:none;fill-rule:nonzero;fill:#7615a4;fill-opacity:1;" d="M 99.167969 202.167969 C 101.667969 202.921875 103.84375 204.25 106.042969 205.625 C 107.039062 206.246094 108.042969 206.859375 109.042969 207.472656 L 109.671875 207.859375 C 111.9375 209.25 114.230469 210.59375 116.527344 211.9375 L 117.726562 212.636719 C 119.414062 213.625 121.105469 214.609375 122.804688 215.582031 C 123.0625 215.730469 123.320312 215.878906 123.582031 216.03125 C 124.035156 216.292969 124.492188 216.550781 124.945312 216.808594 C 126.539062 217.726562 127.703125 218.773438 128.796875 220.25 C 129.429688 221.597656 129.34375 222.835938 129.304688 224.304688 C 129.203125 225.214844 129.09375 225.835938 128.683594 226.640625 C 127.742188 227.796875 126.996094 228.679688 125.601562 229.25 C 124.230469 229.511719 123.046875 229.550781 121.6875 229.25 C 119.082031 228.046875 116.660156 226.441406 114.21875 224.941406 C 111.433594 223.234375 108.648438 221.53125 105.796875 219.929688 L 105.160156 219.570312 C 104.332031 219.035156 104.332031 219.035156 103.410156 218.808594 L 103.421875 219.597656 C 103.445312 222.054688 103.464844 224.511719 103.480469 226.96875 C 103.488281 228.234375 103.496094 229.496094 103.511719 230.761719 C 103.523438 231.980469 103.53125 233.203125 103.535156 234.421875 C 103.539062 234.886719 103.542969 235.351562 103.550781 235.816406 C 103.609375 239.898438 103.609375 239.898438 102.800781 241.582031 C 101.972656 242.835938 101.152344 243.539062 99.871094 244.289062 C 98.589844 244.835938 97.273438 244.722656 95.90625 244.589844 C 94.597656 244.160156 93.8125 243.535156 92.886719 242.550781 C 91.96875 241.511719 91.613281 240.378906 91.339844 239.042969 C 91.253906 238.105469 91.25 237.171875 91.257812 236.234375 L 91.257812 235.410156 C 91.253906 234.519531 91.257812 233.625 91.261719 232.734375 C 91.261719 232.109375 91.261719 231.484375 91.261719 230.859375 C 91.261719 229.550781 91.265625 228.246094 91.269531 226.9375 C 91.277344 225.269531 91.277344 223.601562 91.277344 221.933594 C 91.277344 220.640625 91.277344 219.351562 91.28125 218.0625 C 91.28125 217.449219 91.28125 216.832031 91.285156 216.21875 C 91.289062 207.191406 91.289062 207.191406 92.644531 204.777344 C 93.480469 203.753906 94.195312 203.1875 95.355469 202.554688 C 96.6875 202.125 97.792969 201.945312 99.167969 202.167969 "/><path style=" stroke:none;fill-rule:nonzero;fill:#7615a4;fill-opacity:1;" d="M 38.148438 169.535156 C 40.636719 170.511719 42.929688 172.042969 45.203125 173.429688 C 48.003906 175.125 50.820312 176.800781 53.648438 178.445312 L 54.625 179.019531 C 56.09375 179.875 57.566406 180.726562 59.054688 181.546875 C 63.378906 183.960938 63.378906 183.960938 64.640625 185.949219 C 65.234375 187.1875 65.367188 188.261719 65.335938 189.613281 C 65.183594 190.789062 64.847656 191.644531 64.21875 192.648438 C 63.0625 193.972656 61.558594 194.757812 60.035156 195.59375 C 59.035156 196.144531 58.046875 196.710938 57.058594 197.277344 C 56.492188 197.605469 55.921875 197.929688 55.351562 198.253906 C 53.066406 199.550781 50.808594 200.886719 48.550781 202.230469 C 38.71875 208.09375 38.71875 208.09375 36.554688 208.136719 C 35.082031 207.933594 33.855469 207.539062 32.597656 206.734375 C 31.664062 205.855469 31.097656 205 30.640625 203.796875 C 30.378906 202.207031 30.359375 200.710938 30.882812 199.171875 C 31.546875 197.898438 32.449219 197.132812 33.578125 196.292969 C 34.132812 195.960938 34.695312 195.644531 35.265625 195.339844 L 36.242188 194.820312 L 37.269531 194.273438 L 39.378906 193.144531 L 40.421875 192.585938 C 41.792969 191.84375 43.15625 191.085938 44.511719 190.316406 L 45.171875 189.941406 C 45.660156 189.667969 46.144531 189.390625 46.632812 189.113281 C 43.867188 187.089844 40.953125 185.410156 37.96875 183.734375 C 32.519531 180.640625 32.519531 180.640625 30.96875 178.34375 C 30.460938 176.824219 30.449219 175.363281 30.640625 173.777344 C 31.03125 172.757812 31.542969 171.972656 32.273438 171.164062 C 34.175781 169.683594 35.785156 169.242188 38.148438 169.535156 "/><path style=" stroke:none;fill-rule:nonzero;fill:#7615a4;fill-opacity:1;" d="M 136.042969 170.1875 C 137.394531 170.824219 138.207031 171.664062 139.125 172.839844 C 139.773438 174.128906 139.820312 175.382812 139.753906 176.808594 C 139.605469 177.894531 139.378906 178.746094 138.8125 179.683594 C 137.183594 181.773438 134.175781 182.957031 131.882812 184.179688 C 127.519531 186.285156 127.519531 186.285156 123.644531 189.113281 L 126.046875 190.472656 L 128.101562 191.632812 C 129.648438 192.511719 131.195312 193.382812 132.753906 194.246094 L 133.464844 194.640625 C 133.894531 194.878906 134.320312 195.113281 134.75 195.347656 C 136.34375 196.234375 137.640625 197.113281 138.738281 198.578125 C 139.488281 199.867188 139.613281 200.597656 139.734375 202.085938 C 139.714844 203.390625 139.375 204.347656 138.746094 205.484375 C 137.957031 206.613281 136.953125 207.421875 135.71875 208.039062 C 134.097656 208.304688 132.652344 208.230469 131.105469 207.667969 C 129.890625 207.078125 128.722656 206.4375 127.558594 205.757812 L 126.808594 205.316406 C 125.140625 204.332031 123.480469 203.328125 121.828125 202.320312 C 120.679688 201.625 119.519531 200.949219 118.363281 200.269531 L 117.027344 199.480469 C 116.179688 198.980469 115.328125 198.488281 114.476562 197.996094 C 113.371094 197.359375 112.265625 196.714844 111.164062 196.066406 L 110.089844 195.457031 C 108.144531 194.3125 106.820312 193.375 105.695312 191.398438 C 105.429688 190.582031 105.429688 190.582031 105.371094 189.765625 L 105.269531 188.683594 C 105.375 187.417969 105.675781 186.613281 106.230469 185.488281 C 107.539062 183.671875 109.71875 182.730469 111.632812 181.667969 C 112.664062 181.089844 113.699219 180.511719 114.730469 179.933594 C 116.527344 178.921875 118.3125 177.886719 120.09375 176.855469 L 122.222656 175.628906 C 123.578125 174.84375 124.933594 174.058594 126.289062 173.269531 L 128.132812 172.207031 L 128.972656 171.714844 C 131.355469 170.339844 133.292969 169.453125 136.042969 170.1875 "/><path style=" stroke:none;fill-rule:nonzero;fill:#7615a4;fill-opacity:1;" d="M 220.5625 137.554688 C 221.453125 137.523438 222.335938 137.511719 223.226562 137.511719 L 224.070312 137.511719 C 225 137.507812 225.925781 137.507812 226.851562 137.511719 C 227.496094 137.511719 228.136719 137.511719 228.777344 137.511719 C 230.125 137.507812 231.472656 137.511719 232.820312 137.511719 C 234.550781 137.511719 236.28125 137.511719 238.011719 137.511719 C 239.335938 137.507812 240.664062 137.507812 241.988281 137.511719 C 242.625 137.511719 243.265625 137.511719 243.902344 137.511719 C 244.792969 137.507812 245.683594 137.511719 246.574219 137.511719 L 247.378906 137.511719 C 249.203125 137.515625 249.203125 137.515625 249.933594 137.878906 L 249.933594 145.386719 L 229.046875 145.386719 L 229.046875 157.132812 L 247.320312 157.132812 L 247.320312 164.3125 L 229.375 164.640625 L 229.046875 183.890625 L 220.5625 183.890625 L 220.238281 183.566406 C 220.207031 182.976562 220.191406 182.386719 220.195312 181.792969 L 220.191406 180.628906 L 220.195312 179.339844 L 220.191406 177.992188 C 220.191406 176.765625 220.191406 175.542969 220.191406 174.316406 C 220.191406 173.039062 220.191406 171.761719 220.191406 170.484375 C 220.191406 168.335938 220.191406 166.1875 220.195312 164.039062 C 220.195312 161.554688 220.195312 159.066406 220.191406 156.582031 C 220.191406 154.449219 220.191406 152.320312 220.191406 150.1875 C 220.191406 148.914062 220.191406 147.640625 220.191406 146.367188 C 220.191406 145.167969 220.191406 143.96875 220.195312 142.773438 C 220.195312 142.121094 220.195312 141.46875 220.191406 140.816406 L 220.195312 139.652344 L 220.195312 138.632812 L 220.238281 137.878906 Z M 220.5625 137.554688 "/><path style=" stroke:none;fill-rule:nonzero;fill:#7615a4;fill-opacity:1;" d="M 312.628906 150.65625 C 314.695312 151.589844 316.199219 152.679688 317.625 154.445312 C 318.328125 155.453125 318.757812 156.28125 319.113281 157.460938 L 319.113281 159.417969 L 311.28125 159.417969 L 309.976562 157.132812 C 309.019531 156.417969 308.195312 156.074219 307.039062 155.828125 C 305.15625 155.640625 303.554688 155.902344 301.769531 156.496094 C 301.054688 156.804688 301.054688 156.804688 300.511719 157.785156 C 300.402344 158.769531 300.335938 159.449219 300.511719 160.398438 C 301.109375 161.375 301.109375 161.375 302.144531 162.027344 C 304.761719 163.140625 307.636719 163.601562 310.40625 164.175781 C 312.988281 164.738281 315.496094 165.433594 317.527344 167.207031 C 318.574219 168.269531 319.261719 169.355469 319.765625 170.757812 C 320.3125 172.972656 320.109375 175.089844 319.53125 177.28125 C 318.949219 178.9375 318.191406 180.226562 316.886719 181.414062 C 314.742188 182.984375 312.277344 184.105469 309.648438 184.546875 C 305.578125 184.890625 301.371094 184.898438 297.574219 183.238281 C 295.4375 182.152344 293.722656 180.644531 292.355469 178.671875 C 291.75 177.503906 291.398438 176.40625 291.3125 175.082031 L 291.375 174.429688 C 292.640625 173.796875 294.164062 173.957031 295.554688 173.917969 L 296.542969 173.855469 C 297.5 173.835938 298.285156 173.847656 299.207031 174.101562 C 299.984375 174.882812 300.375 175.726562 300.839844 176.714844 C 301.46875 177.304688 301.894531 177.613281 302.707031 177.871094 C 304.792969 178.285156 307.175781 178.296875 309.199219 177.632812 C 310.304688 177.113281 310.304688 177.113281 310.976562 176.324219 C 311.324219 175.28125 311.335938 174.523438 311.25 173.4375 C 310.972656 172.707031 310.972656 172.707031 310.097656 172.140625 C 308.960938 171.472656 308.0625 171.183594 306.777344 170.910156 L 306.152344 170.773438 C 305.496094 170.628906 304.839844 170.488281 304.183594 170.351562 C 296.628906 168.742188 296.628906 168.742188 294.515625 166.84375 C 293.320312 165.714844 292.59375 164.542969 292.027344 163.007812 C 291.539062 161.382812 291.492188 159.664062 291.875 158.011719 C 292.53125 155.898438 293.507812 154.273438 295.085938 152.707031 C 297.066406 151.027344 299.636719 150.269531 302.148438 149.75 C 305.628906 149.308594 309.320312 149.441406 312.628906 150.65625 "/><path style=" stroke:none;fill-rule:nonzero;fill:#7615a4;fill-opacity:1;" d="M 327.921875 141.46875 L 331.984375 141.449219 L 333.265625 141.441406 L 334.265625 141.4375 L 335.296875 141.433594 L 336.082031 141.46875 L 336.40625 141.796875 C 336.4375 142.425781 336.441406 143.054688 336.441406 143.683594 L 336.4375 144.839844 L 336.429688 146.058594 L 336.425781 147.28125 C 336.417969 148.28125 336.414062 149.28125 336.40625 150.28125 L 342.933594 150.28125 L 342.933594 156.480469 L 336.40625 156.480469 C 336.414062 158.878906 336.425781 161.273438 336.449219 163.671875 C 336.460938 164.785156 336.472656 165.898438 336.472656 167.011719 C 336.472656 168.292969 336.488281 169.574219 336.503906 170.851562 L 336.5 172.0625 C 336.484375 173.949219 336.484375 173.949219 337.078125 175.699219 C 337.53125 176.214844 337.53125 176.214844 338.367188 176.714844 C 339.378906 176.976562 339.378906 176.976562 340.425781 176.976562 L 341.484375 177.027344 L 342.28125 177.039062 C 343.027344 179.273438 343.285156 181.566406 343.585938 183.890625 C 340.5 184.585938 337.230469 185.085938 334.144531 184.136719 C 332.375 183.4375 331.03125 182.554688 329.820312 181.078125 C 328.796875 179.589844 328.277344 178.15625 327.921875 176.386719 C 327.800781 174.828125 327.808594 173.277344 327.828125 171.714844 C 327.828125 171.273438 327.832031 170.832031 327.832031 170.390625 C 327.835938 169.238281 327.84375 168.085938 327.855469 166.933594 C 327.867188 165.757812 327.871094 164.578125 327.875 163.398438 C 327.886719 161.09375 327.902344 158.785156 327.921875 156.480469 L 326.792969 156.492188 L 325.332031 156.5 L 324.585938 156.511719 C 323.957031 156.511719 323.332031 156.5 322.703125 156.480469 L 322.375 156.15625 C 322.351562 155.714844 322.339844 155.277344 322.34375 154.839844 L 322.347656 154.039062 L 322.355469 153.195312 L 322.359375 152.351562 C 322.363281 151.664062 322.371094 150.972656 322.375 150.28125 L 327.921875 150.28125 Z M 327.921875 141.46875 "/><path style=" stroke:none;fill-rule:nonzero;fill:#7615a4;fill-opacity:1;" d="M 205.878906 137.554688 C 206.457031 137.523438 207.035156 137.511719 207.613281 137.511719 L 208.675781 137.507812 L 209.792969 137.511719 L 210.914062 137.507812 L 211.976562 137.511719 L 212.957031 137.511719 L 213.710938 137.554688 L 214.035156 137.878906 C 214.066406 138.472656 214.074219 139.0625 214.074219 139.652344 L 214.078125 140.820312 L 214.074219 142.109375 L 214.074219 143.460938 C 214.074219 144.6875 214.070312 145.914062 214.070312 147.140625 C 214.066406 148.417969 214.066406 149.699219 214.066406 150.976562 C 214.066406 153.402344 214.0625 155.828125 214.058594 158.25 C 214.054688 161.011719 214.054688 163.769531 214.050781 166.53125 C 214.050781 172.210938 214.042969 177.886719 214.035156 183.566406 C 212.683594 183.945312 211.371094 183.941406 209.976562 183.933594 L 209.234375 183.9375 L 208.511719 183.9375 L 207.855469 183.933594 C 207.070312 183.886719 206.324219 183.726562 205.550781 183.566406 C 205.542969 177.613281 205.539062 171.664062 205.535156 165.710938 C 205.535156 162.949219 205.53125 160.1875 205.527344 157.425781 C 205.523438 155.015625 205.523438 152.609375 205.519531 150.203125 C 205.519531 148.925781 205.519531 147.652344 205.515625 146.375 C 205.515625 145.175781 205.515625 143.976562 205.515625 142.777344 C 205.515625 142.125 205.511719 141.472656 205.511719 140.820312 L 205.511719 138.632812 L 205.550781 137.878906 Z M 205.878906 137.554688 "/><path style=" stroke:none;fill-rule:nonzero;fill:#7615a4;fill-opacity:1;" d="M 285.867188 149.585938 L 286.910156 149.585938 C 287.785156 149.628906 287.785156 149.628906 288.4375 149.953125 C 288.773438 151.382812 288.808594 152.773438 288.804688 154.238281 L 288.808594 155.421875 C 288.773438 156.292969 288.664062 156.960938 288.4375 157.785156 L 287.257812 157.742188 C 283.980469 157.578125 283.980469 157.578125 280.832031 158.316406 C 279.5625 159.019531 278.804688 159.851562 277.996094 161.050781 C 277.371094 162.335938 277.253906 163.390625 277.238281 164.8125 L 277.21875 166.101562 L 277.207031 167.480469 C 277.203125 167.953125 277.195312 168.425781 277.1875 168.898438 C 277.171875 170.140625 277.160156 171.382812 277.148438 172.625 C 277.132812 173.894531 277.117188 175.164062 277.101562 176.433594 C 277.070312 178.917969 277.042969 181.40625 277.015625 183.890625 C 275.71875 183.902344 274.421875 183.90625 273.121094 183.914062 L 271.996094 183.921875 L 270.929688 183.925781 L 269.941406 183.929688 L 269.183594 183.890625 L 268.859375 183.566406 C 268.824219 182.542969 268.8125 181.53125 268.816406 180.507812 L 268.816406 179.535156 C 268.8125 178.46875 268.8125 177.402344 268.816406 176.335938 L 268.8125 174.121094 C 268.8125 172.574219 268.816406 171.027344 268.816406 169.476562 C 268.816406 167.488281 268.816406 165.5 268.816406 163.507812 C 268.8125 161.984375 268.8125 160.460938 268.816406 158.9375 C 268.816406 158.203125 268.816406 157.46875 268.8125 156.734375 C 268.8125 155.710938 268.816406 154.6875 268.816406 153.664062 L 268.8125 152.734375 C 268.816406 152.027344 268.835938 151.316406 268.859375 150.605469 L 269.183594 150.28125 C 269.742188 150.253906 270.300781 150.242188 270.859375 150.25 L 271.882812 150.253906 L 272.957031 150.261719 L 274.039062 150.265625 C 274.921875 150.269531 275.808594 150.273438 276.691406 150.28125 C 276.949219 151.949219 277.046875 153.496094 277.015625 155.175781 C 277.886719 154.371094 278.566406 153.53125 279.238281 152.566406 C 280.207031 151.25 281.085938 150.640625 282.5625 149.953125 C 283.671875 149.597656 284.710938 149.585938 285.867188 149.585938 M 156.601562 195.640625 C 158.441406 195.617188 160.28125 195.597656 162.121094 195.585938 C 162.746094 195.582031 163.371094 195.574219 163.996094 195.566406 C 171.34375 195.46875 171.34375 195.46875 174.402344 197.046875 C 176.015625 197.980469 177.113281 199.117188 178.070312 200.707031 C 179.277344 203.160156 179.613281 205.605469 179.539062 208.320312 C 179.339844 210.515625 178.722656 212.304688 177.570312 214.179688 C 176.628906 215.492188 175.660156 216.433594 174.222656 217.175781 C 171.148438 218.5 168.058594 218.53125 164.761719 218.503906 L 163.710938 218.5 C 162.863281 218.496094 162.019531 218.488281 161.171875 218.484375 L 161.175781 219.585938 C 161.183594 220.933594 161.1875 222.277344 161.1875 223.625 C 161.191406 224.207031 161.191406 224.789062 161.195312 225.375 C 161.199219 226.210938 161.203125 227.046875 161.203125 227.882812 L 161.207031 228.679688 C 161.207031 229.304688 161.191406 229.929688 161.171875 230.558594 L 160.84375 230.882812 C 160.191406 230.914062 159.539062 230.925781 158.886719 230.925781 L 157.804688 230.925781 L 156.929688 230.882812 L 156.601562 230.558594 C 156.574219 230.101562 156.5625 229.648438 156.5625 229.191406 L 156.5625 228.300781 L 156.566406 227.316406 L 156.566406 226.28125 C 156.566406 225.152344 156.570312 224.019531 156.570312 222.886719 L 156.574219 220.539062 C 156.574219 218.476562 156.578125 216.414062 156.582031 214.347656 C 156.582031 212.242188 156.585938 210.140625 156.585938 208.035156 C 156.589844 203.902344 156.597656 199.773438 156.601562 195.640625 M 161.171875 200.207031 C 161.164062 202.199219 161.15625 204.195312 161.152344 206.1875 C 161.152344 206.863281 161.148438 207.542969 161.148438 208.222656 C 161.144531 209.195312 161.140625 210.167969 161.140625 211.140625 L 161.132812 212.0625 L 161.132812 213.667969 L 161.171875 214.242188 L 161.496094 214.566406 C 166.703125 214.839844 166.703125 214.839844 171.6875 213.597656 C 172.824219 212.984375 173.695312 212.296875 174.386719 211.203125 C 174.96875 209.851562 175 208.46875 175.019531 207.019531 L 175.03125 206.347656 C 175.011719 205.238281 174.859375 204.40625 174.441406 203.378906 C 173.671875 202.125 172.871094 201.296875 171.613281 200.535156 C 168.289062 199.34375 164.605469 199.878906 161.171875 200.207031 "/><path style=" stroke:none;fill-rule:nonzero;fill:#7615a4;fill-opacity:1;" d="M 195.476562 204.695312 L 196.285156 204.675781 C 198.207031 204.664062 199.875 204.953125 201.636719 205.757812 C 203.019531 206.664062 203.9375 207.601562 204.695312 209.082031 C 206.074219 212.125 205.925781 215.457031 205.910156 218.742188 L 205.910156 219.800781 C 205.90625 220.90625 205.902344 222.007812 205.898438 223.113281 C 205.898438 223.867188 205.894531 224.621094 205.894531 225.375 C 205.890625 227.210938 205.886719 229.046875 205.878906 230.882812 L 201.636719 230.882812 L 200.984375 228.273438 L 200.335938 228.738281 C 198.148438 230.230469 196.136719 231.261719 193.476562 231.535156 C 191.433594 231.496094 189.703125 231.085938 187.949219 230.027344 C 186.855469 229.191406 185.933594 228.355469 185.257812 227.144531 C 184.671875 225.304688 184.746094 223.316406 184.992188 221.417969 C 185.523438 220.101562 186.105469 219.1875 187.175781 218.257812 L 187.792969 217.703125 C 190.191406 216.109375 192.910156 215.878906 195.699219 215.503906 C 196.492188 215.394531 197.28125 215.285156 198.074219 215.175781 L 199.125 215.035156 C 200.03125 214.914062 200.03125 214.914062 200.984375 214.566406 C 201.105469 212.582031 201.105469 212.582031 200.574219 210.691406 C 199.996094 209.988281 199.472656 209.503906 198.699219 209.019531 C 197.007812 208.453125 195.246094 208.578125 193.476562 208.691406 C 192.511719 208.890625 192.058594 209.132812 191.195312 209.671875 C 190.574219 210.292969 190.082031 210.917969 189.5625 211.628906 L 185.972656 210.976562 C 185.992188 210.160156 185.992188 210.160156 186.296875 209.019531 C 187.113281 207.75 188.039062 206.722656 189.351562 205.964844 C 191.453125 205.019531 193.191406 204.710938 195.476562 204.695312 M 196.148438 218.890625 L 194.984375 219.09375 C 192.710938 219.484375 192.710938 219.484375 190.640625 220.433594 C 189.832031 221.085938 189.832031 221.085938 189.234375 222.074219 C 189.074219 223.066406 189.101562 224.011719 189.234375 225.007812 C 189.652344 226 189.652344 226 190.539062 226.640625 C 191.75 227.273438 192.917969 227.589844 194.28125 227.664062 C 196.136719 227.5625 197.625 226.996094 199.277344 226.167969 C 200.207031 225.519531 200.726562 225.011719 201.308594 224.03125 C 201.460938 223.011719 201.433594 222.019531 201.390625 220.992188 L 201.375 220.164062 C 201.355469 219.496094 201.335938 218.824219 201.308594 218.15625 C 199.566406 218.15625 197.859375 218.574219 196.148438 218.890625 M 287.90625 204.632812 L 288.734375 204.644531 C 290.5 204.691406 292.054688 204.851562 293.660156 205.652344 C 295.398438 206.796875 296.527344 208.109375 297.515625 209.9375 C 298.929688 213.03125 298.878906 215.652344 298.878906 219.136719 L 280.933594 219.136719 C 281.609375 222.472656 281.609375 222.472656 283.21875 225.007812 C 284.132812 225.835938 285.007812 226.507812 286.152344 226.96875 C 287.230469 227.082031 287.230469 227.082031 288.398438 227.070312 L 289.578125 227.085938 C 290.835938 226.957031 291.613281 226.660156 292.679688 225.988281 C 293.011719 225.464844 293.011719 225.464844 293.355469 224.929688 C 293.734375 224.410156 293.734375 224.410156 294.3125 224.03125 C 295.753906 223.957031 297.132812 224.128906 298.554688 224.355469 C 298.039062 226.164062 297.277344 227.222656 296.011719 228.582031 C 294.640625 229.855469 293.210938 230.378906 291.457031 230.964844 C 288.984375 231.496094 286.5625 231.417969 284.136719 230.71875 C 282.5 230.101562 281.226562 229.34375 279.96875 228.125 C 278.535156 226.335938 277.445312 224.179688 276.796875 221.976562 C 276.628906 220.574219 276.617188 219.179688 276.609375 217.769531 L 276.589844 216.882812 C 276.574219 214.390625 277.082031 212.285156 278.101562 210.015625 C 279.042969 208.429688 279.984375 207.25 281.480469 206.164062 C 283.609375 205.015625 285.492188 204.605469 287.90625 204.632812 M 283.777344 209.199219 C 282.652344 210.148438 281.824219 211.25 281.257812 212.609375 L 280.933594 215.546875 L 294.3125 215.546875 C 294.34375 212.96875 294.34375 212.96875 293.402344 210.898438 C 292.703125 209.882812 291.832031 209.296875 290.800781 208.667969 C 288.691406 207.796875 285.730469 208.023438 283.777344 209.199219 "/><path style=" stroke:none;fill-rule:nonzero;fill:#7615a4;fill-opacity:1;" d="M 254.828125 150.28125 L 262.984375 150.28125 L 262.984375 183.566406 L 255.152344 183.890625 L 254.828125 183.566406 C 254.796875 182.53125 254.785156 181.507812 254.789062 180.472656 L 254.789062 179.488281 C 254.789062 178.410156 254.792969 177.332031 254.792969 176.253906 L 254.796875 174.015625 C 254.796875 172.046875 254.800781 170.082031 254.804688 168.113281 C 254.808594 166.109375 254.808594 164.101562 254.8125 162.097656 C 254.816406 158.15625 254.820312 154.21875 254.828125 150.28125 "/><path style=" stroke:none;fill-rule:nonzero;fill:#7615a4;fill-opacity:1;" d="M 335.878906 204.988281 C 337.675781 205.570312 338.929688 206.40625 340.214844 207.785156 C 340.679688 208.40625 341.019531 208.945312 341.304688 209.671875 C 341.34375 210.570312 341.34375 210.570312 341.304688 211.304688 C 340.617188 211.347656 339.929688 211.378906 339.242188 211.40625 L 338.085938 211.464844 L 337.0625 211.304688 C 336.484375 210.519531 336.484375 210.519531 336.082031 209.671875 C 335.296875 209.003906 335.296875 209.003906 334.125 208.691406 C 332.222656 208.515625 330.488281 208.476562 328.679688 209.121094 C 327.851562 209.65625 327.851562 209.65625 327.269531 210.652344 C 327.109375 211.601562 327.109375 211.601562 327.269531 212.609375 C 327.796875 213.480469 327.796875 213.480469 328.578125 214.242188 C 329.464844 214.667969 329.464844 214.667969 330.472656 214.914062 L 331.605469 215.230469 C 332.433594 215.445312 333.261719 215.65625 334.09375 215.859375 C 336.859375 216.542969 338.964844 217.269531 341.097656 219.175781 C 341.917969 220.628906 342.210938 222.042969 342.28125 223.703125 C 342.058594 225.324219 341.558594 226.757812 340.570312 228.070312 C 339.082031 229.488281 337.4375 230.382812 335.429688 230.882812 C 332.449219 231.398438 329.515625 231.25 326.660156 230.21875 C 325.386719 229.632812 324.308594 229.023438 323.375 227.964844 C 322.722656 226.996094 322.167969 226.089844 321.722656 225.007812 L 321.722656 223.703125 L 326.292969 223.703125 L 326.800781 224.785156 C 327.332031 225.6875 327.636719 226.015625 328.535156 226.621094 C 330.414062 227.269531 332.5 227.179688 334.449219 226.96875 C 335.410156 226.636719 335.925781 226.300781 336.734375 225.660156 C 337.109375 224.914062 337.148438 224.414062 337.183594 223.582031 L 337.230469 222.820312 C 337.109375 222.015625 337.109375 222.015625 336.433594 221.375 C 335.097656 220.566406 333.785156 220.28125 332.269531 219.953125 C 326.234375 218.53125 326.234375 218.53125 323.804688 216.382812 C 323.136719 215.625 322.785156 214.882812 322.53125 213.910156 C 322.292969 212.167969 322.453125 210.761719 323.023438 209.09375 C 323.671875 207.667969 324.71875 206.933594 325.945312 206.019531 C 328.894531 204.277344 332.578125 204.351562 335.878906 204.992188 "/><path style=" stroke:none;fill-rule:nonzero;fill:#7615a4;fill-opacity:1;" d="M 265.265625 205.050781 C 266.949219 205.808594 268.0625 206.789062 269.132812 208.28125 C 270.308594 210.578125 270.277344 212.867188 270.3125 215.394531 L 270.332031 216.582031 C 270.347656 217.40625 270.359375 218.230469 270.371094 219.054688 C 270.386719 220.316406 270.410156 221.578125 270.433594 222.839844 L 270.472656 225.246094 L 270.496094 226.390625 L 270.507812 227.457031 L 270.523438 228.390625 C 270.492188 229.25 270.492188 229.25 270.164062 230.882812 L 266.25 230.882812 L 266.234375 229.238281 C 266.214844 227.21875 266.191406 225.199219 266.164062 223.183594 C 266.152344 222.308594 266.140625 221.4375 266.136719 220.5625 C 266.125 219.308594 266.105469 218.054688 266.089844 216.796875 L 266.082031 215.617188 C 266.054688 214.082031 266.015625 212.859375 265.472656 211.414062 C 264.851562 210.519531 264.214844 209.953125 263.3125 209.347656 C 261.785156 208.835938 260.335938 208.839844 258.742188 209.019531 C 257.527344 209.398438 256.472656 209.847656 255.480469 210.652344 C 254.679688 211.726562 254.234375 212.5 254.046875 213.835938 C 253.992188 214.917969 253.976562 215.996094 253.976562 217.085938 L 253.960938 218.28125 C 253.941406 219.539062 253.9375 220.796875 253.929688 222.050781 C 253.921875 222.90625 253.910156 223.761719 253.898438 224.613281 C 253.875 226.703125 253.859375 228.792969 253.847656 230.882812 L 249.605469 230.882812 L 249.605469 205.101562 C 252.542969 205.101562 252.542969 205.101562 253.847656 205.757812 L 253.847656 208.039062 L 254.5625 207.492188 L 255.519531 206.777344 L 256.460938 206.066406 C 259.042969 204.386719 262.328125 204.226562 265.265625 205.050781 "/><path style=" stroke:none;fill-rule:nonzero;fill:#7615a4;fill-opacity:1;" d="M 237.859375 197.925781 L 237.859375 205.101562 L 243.078125 205.429688 L 243.078125 208.691406 L 238.183594 209.019531 C 238.160156 211.171875 238.140625 213.328125 238.128906 215.484375 C 238.125 216.214844 238.117188 216.949219 238.109375 217.679688 C 238.097656 218.734375 238.09375 219.789062 238.089844 220.84375 C 238.082031 221.167969 238.078125 221.496094 238.074219 221.832031 C 238.074219 223.179688 238.082031 224.128906 238.644531 225.367188 C 239.128906 226 239.128906 226 239.734375 226.394531 C 240.726562 226.726562 241.714844 226.847656 242.753906 226.96875 C 242.972656 227.496094 243.1875 228.027344 243.40625 228.558594 L 243.773438 229.453125 C 244.058594 230.230469 244.058594 230.230469 244.058594 230.882812 C 242.550781 231.347656 241.203125 231.648438 239.632812 231.351562 C 238.097656 230.921875 236.742188 230.355469 235.574219 229.25 C 234.648438 227.832031 233.960938 226.34375 233.617188 224.683594 C 233.589844 224.15625 233.578125 223.625 233.578125 223.097656 L 233.578125 222.148438 L 233.582031 221.128906 L 233.585938 220.082031 C 233.585938 218.976562 233.589844 217.875 233.59375 216.769531 C 233.597656 216.019531 233.597656 215.273438 233.601562 214.523438 C 233.601562 212.6875 233.609375 210.855469 233.617188 209.019531 L 230.027344 208.691406 L 230.027344 205.101562 L 233.289062 205.101562 L 233.277344 203.996094 L 233.269531 202.554688 L 233.261719 201.824219 C 233.253906 200.765625 233.277344 199.917969 233.617188 198.902344 C 234.328125 198.59375 234.328125 198.59375 235.207031 198.351562 L 236.082031 198.105469 C 236.878906 197.925781 236.878906 197.925781 237.859375 197.925781 M 223.703125 204.410156 L 224.472656 204.40625 C 225.132812 204.449219 225.132812 204.449219 225.785156 204.777344 L 225.785156 209.347656 L 224.171875 209.121094 C 222.597656 208.984375 221.367188 209.070312 219.890625 209.644531 C 218.828125 210.238281 218.300781 210.941406 217.625 211.957031 C 217.304688 212.921875 217.25 213.578125 217.238281 214.589844 L 217.222656 215.609375 L 217.207031 216.707031 L 217.1875 217.839844 C 217.171875 219.03125 217.152344 220.226562 217.136719 221.417969 C 217.113281 222.992188 217.089844 224.5625 217.066406 226.132812 L 217.050781 227.230469 L 217.035156 228.25 L 217.023438 229.148438 C 216.972656 229.902344 216.972656 229.902344 216.648438 230.882812 L 212.730469 230.882812 L 212.730469 205.429688 C 213.546875 205.023438 214.125 205.058594 215.035156 205.0625 L 215.925781 205.058594 L 216.648438 205.101562 L 216.972656 205.429688 C 217.019531 206.300781 216.988281 207.167969 216.972656 208.039062 L 217.953125 208.039062 L 218.136719 207.328125 C 218.691406 206.234375 219.296875 205.796875 220.285156 205.109375 C 221.40625 204.496094 222.441406 204.40625 223.703125 204.410156 "/><path style=" stroke:none;fill-rule:nonzero;fill:#7615a4;fill-opacity:1;" d="M 317.15625 204.449219 L 318.132812 205.101562 C 318.242188 205.859375 318.242188 205.859375 318.214844 206.734375 C 318.210938 207.023438 318.207031 207.3125 318.199219 207.613281 C 318.132812 208.367188 318.132812 208.367188 317.808594 209.019531 L 317.125 208.972656 C 315.164062 208.898438 313.65625 209.039062 311.894531 209.929688 C 311.039062 210.480469 310.507812 211.09375 309.976562 211.957031 C 309.644531 212.949219 309.597656 213.652344 309.582031 214.695312 L 309.5625 215.78125 L 309.546875 216.957031 L 309.527344 218.160156 C 309.503906 219.429688 309.484375 220.699219 309.464844 221.96875 L 309.421875 224.550781 C 309.386719 226.660156 309.355469 228.773438 309.324219 230.882812 L 305.082031 230.882812 L 305.082031 205.429688 L 309.324219 205.429688 L 309.324219 208.367188 L 310.628906 207.0625 L 311.363281 206.226562 C 313.058594 204.722656 314.890625 204.230469 317.15625 204.449219 "/><path style=" stroke:none;fill-rule:nonzero;fill:#7615a4;fill-opacity:1;" d="M 260.324219 136.6875 C 261.5 137.042969 262.132812 137.660156 262.984375 138.53125 C 263.550781 139.664062 263.433594 140.878906 263.425781 142.125 C 263.3125 143.101562 263.3125 143.101562 263.003906 143.773438 C 262.40625 144.527344 261.734375 145.027344 260.90625 145.507812 C 259.800781 145.769531 258.894531 145.8125 257.765625 145.710938 C 256.667969 145.304688 255.925781 144.832031 255.03125 144.082031 C 254.46875 143.042969 254.382812 142.488281 254.335938 141.328125 C 254.386719 140.132812 254.515625 139.480469 255.011719 138.371094 C 255.804688 137.554688 255.804688 137.554688 256.847656 136.921875 C 258.132812 136.5625 259.019531 136.488281 260.324219 136.6875 "/></g></svg>